<svg width="25" height="34" viewBox="0 0 25 34" fill="none" xmlns="http://www.w3.org/2000/svg">
<rect width="25" height="34" fill="#F8E3B6"/>
<path d="M12.4998 28.8055C12.9372 28.7954 13.357 28.631 13.6849 28.3412C14.0128 28.0514 14.2276 27.6551 14.2914 27.2222H10.6387C10.7043 27.6668 10.9292 28.0725 11.2715 28.3638C11.6139 28.655 12.0504 28.812 12.4998 28.8055Z" fill="#834D1E"/>
<path d="M22.8126 24.5347L22.5765 24.3264C21.9067 23.7296 21.3204 23.0452 20.8334 22.2917C20.3017 21.2518 19.9829 20.1162 19.8959 18.9514V15.5209C19.8931 15.1042 19.856 14.6884 19.7848 14.2778C18.6085 14.036 17.5519 13.3952 16.7939 12.4638C16.0358 11.5323 15.6229 10.3676 15.6251 9.16669V8.72919C14.9001 8.37238 14.1211 8.13774 13.3196 8.03475V7.15975C13.3196 6.91387 13.2219 6.67806 13.048 6.5042C12.8742 6.33034 12.6383 6.23267 12.3925 6.23267C12.1466 6.23267 11.9108 6.33034 11.7369 6.5042C11.5631 6.67806 11.4654 6.91387 11.4654 7.15975V8.06947C9.67075 8.32263 8.02828 9.21652 6.84123 10.5861C5.65418 11.9557 5.0027 13.7085 5.00705 15.5209V18.9514C4.92008 20.1162 4.60134 21.2518 4.06955 22.2917C3.591 23.0433 3.01413 23.7276 2.35428 24.3264L2.11816 24.5347V26.4931H22.8126V24.5347Z" fill="#834D1E"/>
<path d="M20.8335 12.6388C22.7512 12.6388 24.3058 11.0842 24.3058 9.16656C24.3058 7.2489 22.7512 5.69434 20.8335 5.69434C18.9159 5.69434 17.3613 7.2489 17.3613 9.16656C17.3613 11.0842 18.9159 12.6388 20.8335 12.6388Z" fill="#FB452D"/>
</svg>
